# xmcd
#
# Track frame offsets:
#	150
#	21067
#	36355
#	56232
#	73965
#	89915
#	107487
#	119097
#	133110
#	147295
#	161462
#	174807
#	190285
#	203895
#	219367
#	235800
#	256072
#	273602
#	292580
#	318015
#
# Disc length: 4348 seconds
#
# Revision: 1
# Processed by: cddbd v1.5.2PL0 Copyright (c) Steve Scherf et al.
# Submitted via: audiograbber 1.83.01
#
DISCID=2b10fa14
DTITLE=Nitty Gritty Dirt Band, The - Will the Circle Be Unbroken, Vol. II
DYEAR=1989
DGENRE=Bluegrass
TTITLE0=Life's Railway To Heaven
TTITLE1=Grandpa Was A Carpenter
TTITLE2=When I Get My Rewards
TTITLE3=Don't You Hear Jerusalem Moan
TTITLE4=Little Mountain Church House
TTITLE5=And So It Goes
TTITLE6=When It's Gone
TTITLE7=Mary Danced with Soldiers
TTITLE8=Riding Alone
TTITLE9=I'm Sittin' On Top Of The World
TTITLE10=Lovin' On The Side
TTITLE11=Lost River
TTITLE12=Bayou Jubilee
TTITLE13=Blues Berry Hill
TTITLE14=Turn Of The Century
TTITLE15=One Step Over The Line
TTITLE16=You Ain't Going Nowhere
TTITLE17=The Valley Road
TTITLE18=Will The Circle Be Unbroken
TTITLE19=Amazing Grace
EXTD=ID3G:   2
EXTT0=
EXTT1=
EXTT2=
EXTT3=
EXTT4=
EXTT5=
EXTT6=
EXTT7=
EXTT8=
EXTT9=
EXTT10=
EXTT11=
EXTT12=
EXTT13=
EXTT14=
EXTT15=
EXTT16=
EXTT17=
EXTT18=
EXTT19=
PLAYORDER=
